<svg xmlns="http://www.w3.org/2000/svg" xmlns:xlink="http://www.w3.org/1999/xlink" width="380" height="380" viewBox="0 0 380 380">
  <defs>
    <clipPath id="clip-path">
      <circle id="楕円形_56" data-name="楕円形 56" cx="190" cy="190" r="190" transform="translate(5170 -1522)" fill="#fff" stroke="#707070" stroke-width="1"/>
    </clipPath>
    <filter id="長方形_116" x="0" y="3" width="380" height="380" filterUnits="userSpaceOnUse">
      <feOffset dy="3" input="SourceAlpha"/>
      <feGaussianBlur stdDeviation="3" result="blur"/>
      <feFlood flood-opacity="0.161"/>
      <feComposite operator="in" in2="blur"/>
      <feComposite in="SourceGraphic"/>
    </filter>
    <filter id="長方形_116-2" x="0" y="3" width="380" height="380" filterUnits="userSpaceOnUse">
      <feOffset dy="3" input="SourceAlpha"/>
      <feGaussianBlur stdDeviation="3" result="blur-2"/>
      <feFlood flood-opacity="0.161" result="color"/>
      <feComposite operator="out" in="SourceGraphic" in2="blur-2"/>
      <feComposite operator="in" in="color"/>
      <feComposite operator="in" in2="SourceGraphic"/>
    </filter>
    <filter id="長方形_117" x="143.473" y="56.07" width="174.184" height="84.936" filterUnits="userSpaceOnUse">
      <feOffset dy="3" input="SourceAlpha"/>
      <feGaussianBlur stdDeviation="3" result="blur-3"/>
      <feFlood flood-opacity="0.161"/>
      <feComposite operator="in" in2="blur-3"/>
      <feComposite in="SourceGraphic"/>
    </filter>
    <filter id="長方形_118" x="61.663" y="219.691" width="174.184" height="84.936" filterUnits="userSpaceOnUse">
      <feOffset dy="3" input="SourceAlpha"/>
      <feGaussianBlur stdDeviation="3" result="blur-4"/>
      <feFlood flood-opacity="0.161"/>
      <feComposite operator="in" in2="blur-4"/>
      <feComposite in="SourceGraphic"/>
    </filter>
    <filter id="長方形_119" x="61.663" y="55.612" width="84.936" height="84.936" filterUnits="userSpaceOnUse">
      <feOffset dy="3" input="SourceAlpha"/>
      <feGaussianBlur stdDeviation="3" result="blur-5"/>
      <feFlood flood-opacity="0.161"/>
      <feComposite operator="in" in2="blur-5"/>
      <feComposite in="SourceGraphic"/>
    </filter>
    <filter id="パス_65" x="61.663" y="137.881" width="255.995" height="84.936" filterUnits="userSpaceOnUse">
      <feOffset dy="3" input="SourceAlpha"/>
      <feGaussianBlur stdDeviation="3" result="blur-6"/>
      <feFlood flood-opacity="0.161"/>
      <feComposite operator="in" in2="blur-6"/>
      <feComposite in="SourceGraphic"/>
    </filter>
    <clipPath id="clip-path-2">
      <path id="パス_68" data-name="パス 68" d="M-31.833-70.6l-6.36,5.3,6.36,5.3-7.687,3.076,4.411,7.007-8.261.55,2.03,8.027-8.027-2.03-.55,8.261-7.007-4.411L-60-31.833l-5.3-6.36-5.3,6.36-3.076-7.687-7.007,4.411-.55-8.261-8.027,2.03,2.03-8.027-8.261-.55,4.411-7.007L-98.769-60l6.36-5.3-6.36-5.3,7.687-3.076-4.411-7.007,8.261-.55-2.03-8.027,8.027,2.029.55-8.261,7.007,4.411,3.076-7.687,5.3,6.36,5.3-6.36,3.076,7.687,7.007-4.411.55,8.261,8.027-2.029-2.03,8.027,8.261.55-4.411,7.007Z" transform="translate(98.769 98.769)" fill="#50586b"/>
    </clipPath>
    <filter id="長方形_121" x="229.002" y="219.691" width="84.936" height="84.936" filterUnits="userSpaceOnUse">
      <feOffset dy="3" input="SourceAlpha"/>
      <feGaussianBlur stdDeviation="3" result="blur-7"/>
      <feFlood flood-opacity="0.302"/>
      <feComposite operator="in" in2="blur-7"/>
      <feComposite in="SourceGraphic"/>
    </filter>
  </defs>
  <g id="マスクグループ_22" data-name="マスクグループ 22" transform="translate(-5170 1522)" clip-path="url(#clip-path)">
    <g id="グループ_99" data-name="グループ 99" transform="translate(1961 1582)">
      <g id="グループ_92" data-name="グループ 92" transform="translate(-1342 -3008)">
        <rect id="長方形_115" data-name="長方形 115" width="380" height="380" transform="translate(4551 -96)" fill="#50586b"/>
        <g data-type="innerShadowGroup">
          <g transform="matrix(1, 0, 0, 1, 4551, -96)" filter="url(#長方形_116)">
            <rect id="長方形_116-3" data-name="長方形 116" width="362" height="362" rx="181" transform="translate(9 9)" fill="#747f9a"/>
          </g>
          <g transform="matrix(1, 0, 0, 1, 4551, -96)" filter="url(#長方形_116-2)">
            <rect id="長方形_116-4" data-name="長方形 116" width="362" height="362" rx="181" transform="translate(9 9)" fill="#fff"/>
          </g>
        </g>
        <g transform="matrix(1, 0, 0, 1, 4551, -96)" filter="url(#長方形_117)">
          <rect id="長方形_117-2" data-name="長方形 117" width="156.184" height="66.936" rx="18" transform="translate(152.47 62.07)" fill="#e7a532"/>
        </g>
        <g transform="matrix(1, 0, 0, 1, 4551, -96)" filter="url(#長方形_118)">
          <rect id="長方形_118-2" data-name="長方形 118" width="156.184" height="66.936" rx="18" transform="translate(70.66 225.69)" fill="#83c64a"/>
        </g>
        <g transform="matrix(1, 0, 0, 1, 4551, -96)" filter="url(#長方形_119)">
          <rect id="長方形_119-2" data-name="長方形 119" width="66.936" height="66.936" rx="33" transform="translate(70.66 61.61)" fill="#50586b"/>
        </g>
        <g id="楕円形_53" data-name="楕円形 53" transform="translate(4632.818 -19.513)" fill="#fff" stroke="#50586b" stroke-width="1">
          <circle cx="4.937" cy="4.937" r="4.937" stroke="none"/>
          <circle cx="4.937" cy="4.937" r="4.437" fill="none"/>
        </g>
        <g id="楕円形_54" data-name="楕円形 54" transform="translate(4651.412 -15.795)" fill="#fff" stroke="#50586b" stroke-width="1">
          <circle cx="4.937" cy="4.937" r="4.937" stroke="none"/>
          <circle cx="4.937" cy="4.937" r="4.437" fill="none"/>
        </g>
        <line id="線_71" data-name="線 71" x2="4.661" y2="26.017" transform="translate(4676.5 -19.5)" fill="none" stroke="#fff" stroke-linecap="round" stroke-width="0.4"/>
        <line id="線_72" data-name="線 72" x2="3.719" y2="18.593" transform="translate(4627.241 -2.779)" fill="none" stroke="#fff" stroke-linecap="round" stroke-width="0.4"/>
        <line id="線_73" data-name="線 73" x2="3.719" y2="22.312" transform="translate(4652.63 3.694)" fill="none" stroke="#fff" stroke-linecap="round" stroke-width="0.4"/>
        <line id="線_74" data-name="線 74" x2="3.719" y2="22.312" transform="translate(4663.145 -28.81)" fill="none" stroke="#fff" stroke-linecap="round" stroke-width="0.4"/>
        <line id="線_75" data-name="線 75" x2="3.719" y2="22.312" transform="translate(4645.834 -28.81)" fill="none" stroke="#fff" stroke-linecap="round" stroke-width="0.4"/>
        <line id="線_76" data-name="線 76" x2="1.896" y2="13.158" transform="translate(4636.5 -8.5)" fill="none" stroke="#fff" stroke-linecap="round" stroke-width="0.4"/>
        <line id="線_77" data-name="線 77" x2="2.927" y2="20.398" transform="translate(4661.5 4.5)" fill="none" stroke="#fff" stroke-linecap="round" stroke-width="0.4"/>
        <line id="線_78" data-name="線 78" x2="3.719" y2="22.312" transform="translate(4643.974 7.694)" fill="none" stroke="#fff" stroke-linecap="round" stroke-width="0.4"/>
        <line id="線_79" data-name="線 79" x2="3.719" y2="22.312" transform="translate(4670.005 -2.779)" fill="none" stroke="#fff" stroke-linecap="round" stroke-width="0.4"/>
        <g transform="matrix(1, 0, 0, 1, 4551, -96)" filter="url(#パス_65)">
          <path id="パス_65-2" data-name="パス 65" d="M18.666,0H219.329c10.309,0,18.666,6.66,18.666,14.875V52.061c0,8.215-8.357,14.875-18.666,14.875H18.666C8.357,66.936,0,60.276,0,52.061V14.875C0,6.66,8.357,0,18.666,0Z" transform="translate(70.66 143.88)" fill="#62aac2"/>
        </g>
        <path id="パス_66" data-name="パス 66" d="M0-2.618,237.995,24.754V39.237H0Z" transform="translate(4621.663 75.579)" fill="#59cebf"/>
        <g id="楕円形_55" data-name="楕円形 55" transform="translate(4629.1 55.318)" fill="#50586b" stroke="#50586b" stroke-width="1">
          <circle cx="5.578" cy="5.578" r="5.578" stroke="none"/>
          <circle cx="5.578" cy="5.578" r="5.078" fill="none"/>
        </g>
        <g id="パス_67" data-name="パス 67" transform="translate(4600.239 70.193)" fill="#50586b">
          <path d="M 28.86125373840332 11.10600280761719 C 27.27463340759277 11.10600280761719 17.88209342956543 10.47207260131836 8.998872756958008 9.472562789916992 C -2.294607162475586 8.201852798461914 -8.514206886291504 6.818742752075195 -8.514206886291504 5.5780029296875 C -8.514206886291504 4.337263107299805 -2.294607162475586 2.954152822494507 8.998872756958008 1.683442950248718 C 17.88209342956543 0.683932900428772 27.27463340759277 0.05000292882323265 28.86125373840332 0.05000292882323265 C 31.90940284729004 0.05000292882323265 34.38925170898438 2.529852867126465 34.38925170898438 5.5780029296875 C 34.38925170898438 8.626152992248535 31.90940284729004 11.10600280761719 28.86125373840332 11.10600280761719 Z" stroke="none"/>
          <path d="M 28.86125183105469 0.1000032424926758 C 27.27547264099121 0.1000032424926758 17.88598251342773 0.7338132858276367 9.004463195800781 1.733133316040039 C 3.893463134765625 2.308202743530273 -0.189056396484375 2.90427303314209 -3.12968635559082 3.504773139953613 C -7.538715362548828 4.405122756958008 -8.464206695556641 5.129162788391113 -8.464206695556641 5.5780029296875 C -8.464206695556641 5.799792766571045 -8.218257904052734 6.158662796020508 -7.046577453613281 6.608822822570801 C -6.152336120605469 6.952383041381836 -4.834506988525391 7.303102970123291 -3.12968635559082 7.651232719421387 C -0.189056396484375 8.25173282623291 3.893463134765625 8.847803115844727 9.004463195800781 9.422872543334961 C 17.88598251342773 10.42219257354736 27.27547264099121 11.05600261688232 28.86125183105469 11.05600261688232 C 31.88183212280273 11.05600261688232 34.33925247192383 8.598583221435547 34.33925247192383 5.5780029296875 C 34.33925247192383 2.557422637939453 31.88183212280273 0.1000032424926758 28.86125183105469 0.1000032424926758 M 28.86125183105469 2.86102294921875e-06 C 31.94189262390137 2.86102294921875e-06 34.43925476074219 2.497352600097656 34.43925476074219 5.5780029296875 C 34.43925476074219 8.658653259277344 31.94189262390137 11.15600299835205 28.86125183105469 11.15600299835205 C 25.78060340881348 11.15600299835205 -8.564208984375 8.658653259277344 -8.564208984375 5.5780029296875 C -8.564208984375 2.497352600097656 25.78060340881348 2.86102294921875e-06 28.86125183105469 2.86102294921875e-06 Z" stroke="none" fill="#fff"/>
        </g>
        <g id="マスクグループ_21" data-name="マスクグループ 21" transform="translate(4789.002 129.691)" opacity="0.8" clip-path="url(#clip-path-2)">
          <rect id="長方形_120" data-name="長方形 120" width="75.564" height="75.564" rx="37.782" transform="translate(-3.545 -4.314)" fill="#50586b"/>
        </g>
        <g transform="matrix(1, 0, 0, 1, 4551, -96)" filter="url(#長方形_121)">
          <rect id="長方形_121-2" data-name="長方形 121" width="66.936" height="66.936" rx="33" transform="translate(238 225.69)" fill="rgba(87,95,116,0.78)"/>
        </g>
      </g>
    </g>
  </g>
</svg>
